<svg width="26" height="21" viewBox="0 0 26 21" fill="none" xmlns="http://www.w3.org/2000/svg">
<path d="M18.3889 20V17.8889C18.3889 16.7691 17.944 15.6952 17.1522 14.9033C16.3604 14.1115 15.2865 13.6667 14.1667 13.6667H5.72222C4.60242 13.6667 3.52848 14.1115 2.73666 14.9033C1.94484 15.6952 1.5 16.7691 1.5 17.8889V20" stroke="#797689" stroke-width="2" stroke-linecap="round" stroke-linejoin="round"/>
<path d="M9.94444 9.44444C12.2763 9.44444 14.1667 7.55409 14.1667 5.22222C14.1667 2.89035 12.2763 1 9.94444 1C7.61257 1 5.72222 2.89035 5.72222 5.22222C5.72222 7.55409 7.61257 9.44444 9.94444 9.44444Z" stroke="#797689" stroke-width="2" stroke-linecap="round" stroke-linejoin="round"/>
<path d="M24.7222 20V17.8889C24.7215 16.9534 24.4102 16.0446 23.837 15.3052C23.2638 14.5659 22.4614 14.0378 21.5556 13.8039" stroke="#797689" stroke-width="2" stroke-linecap="round" stroke-linejoin="round"/>
<path d="M17.3333 1.13722C18.2416 1.36976 19.0465 1.89796 19.6214 2.63855C20.1963 3.37914 20.5083 4.28999 20.5083 5.2275C20.5083 6.16501 20.1963 7.07586 19.6214 7.81645C19.0465 8.55704 18.2416 9.08524 17.3333 9.31778" stroke="#797689" stroke-width="2" stroke-linecap="round" stroke-linejoin="round"/>
</svg>
